# xmcd
#
# Track frame offsets:
#	150
#	11855
#	27137
#	40828
#	55869
#	69106
#	83062
#	95582
#	109755
#	122290
#
# Disc length: 1813 seconds
#
# Revision: 0
# Processed by: cddbd v1.5.2PL0 Copyright (c) Steve Scherf et al.
# Submitted via: audiograbber 1.83.01
#
DISCID=7107130a
DTITLE=Mel McDaniel - Stand Up
DYEAR=1985
DGENRE=Country
TTITLE0=Stand Up
TTITLE1=Reminders
TTITLE2=Make It With The Blues
TTITLE3=If You Still Want A Fool Around
TTITLE4=Shoe String
TTITLE5=Thank You Nadine
TTITLE6=Worn Out Shoe
TTITLE7=Love Is Goin' 'Round
TTITLE8=Doctor's Orders
TTITLE9=Whatever Gets You Through The Night
EXTD=
EXTT0=
EXTT1=
EXTT2=
EXTT3=
EXTT4=
EXTT5=
EXTT6=
EXTT7=
EXTT8=
EXTT9=
PLAYORDER=
